<?xml version="1.0" standalone="yes"?>
<svg xmlns="http://www.w3.org/2000/svg" width="240" height="80">
<path style="fill:#f3f6f3; stroke:none;" d="M0 0L0 80L240 80L240 0L0 0z"/>
<path style="fill:#ba9889; stroke:none;" d="M208 12L206 10L206 9L208 7C200.749 7.23813 200.749 11.7619 208 12M210 7L210 12L232 12L232 7L213 7L214 11L210 7M17 13L20 16C25.3199 6.65079 37.4665 10.3151 43.9846 16.1852C53.0136 24.3167 53.8813 34.6947 53 46L40 45L40 43C42.8814 43 47.8615 43.9109 50.2577 41.9722C53.0124 39.7435 53.0093 31.4386 49.6821 29.7423C42.5875 26.1253 29.9982 29.4849 22 28L19 42L30 44L30 45L21 45L21 46L32 46L32 43L39 43L37 45L37 46L51 46L48 58L40 65L33 65L33 66L36 66L36 67C32.0754 67 27.2203 68.1186 28 65L24 66C23.6118 63.0356 21.8535 62.8402 19 63L16 61C15.9099 57.5745 8.60709 47 14 47L14 46L14 45L9 46L10 36L8 33C-1.59657 53.4697 25.9217 79.9702 44.8295 64.152C68.971 43.9552 49.2609 -5.75832 17 13z"/>
<path style="fill:#f3f6f3; stroke:none;" d="M19 18C22.9302 16.1624 25.1833 13.5122 28 18L23 19L23 20L27 20L24 24L24 29C31.0272 29 42.3916 26.8198 48.8519 29.7423C52.9378 31.5907 53.184 39.4819 49.5664 41.9722C47.0657 43.6936 42.875 42.9997 40 43L40 45L53 46C54.7303 34.9354 53.0197 22.9749 43.9846 15.3295C36.8938 9.32932 22.1393 6.599 19 18z"/>
<path style="fill:#6aad8c; stroke:none;" d="M15 14L17 18C11.5349 19.659 12.0039 23.9963 12 29L11 29L8 25L9 30L5 33L8 37L11 35L18 48L22 47C18.5783 38.7682 17.5443 33.7388 20 25L24 28L24 24L27 24L27 20L23 20L23 19L28 17C24.693 13.9724 22.4809 15.8491 19 18L15 14z"/>
<path style="fill:#ba9889; stroke:none;" d="M23 14L24 15L23 14M26 14L27 15L26 14z"/>
<path style="fill:#6aad8c; stroke:none;" d="M67 19L68 19L68 15L77 15L77 19C79.101 12.5885 68.1053 12.3771 67 19M82 41L89 38L88 38L83 40L83 15L91 15L91 21C93.0667 15.8954 86.8603 10.7673 83.0278 15.6034C79.3028 20.3039 82 35.1147 82 41M94 17L95 17C98.1486 14.6639 100.329 15.2823 103 18L105 18C108.797 14.1224 113.878 15 119 15L119 19C111.133 21.6111 117.366 34.2364 113 40L113 41C118.486 39.8244 116 24.8796 116 20L120 20C119.34 11.527 97.7968 11.1443 94 17z"/>
<path style="fill:#ba9889; stroke:none;" d="M102 14L103 15L102 14z"/>
<path style="fill:#6aad8c; stroke:none;" d="M121 20L122 20C125.088 14.1156 130.823 14.2676 135 19C135.182 11.07 122.803 13.9271 121 20M139 16L145 15C145 20.8637 142.32 33.7831 149 36L149 40L139 40L139 41L150 41L150 35L146 35C146 31.6067 147.063 6.81855 139 16M157 23L158 23C158.908 17.1366 162.319 15.1844 168 15C161.503 12.3052 157.347 16.7078 157 23z"/>
<path style="fill:#ba9889; stroke:none;" d="M177 14L178 15L177 14z"/>
<path style="fill:#6aad8c; stroke:none;" d="M177 15L177 16L187 16L177 15M195 14L195 15C199.318 15.0391 202.682 15.032 205 19C206.19 13.5288 198.717 14.0107 195 14M209 14L209 15L215 15L215 40L209 40L209 41L216 41C216 32.7147 220.154 14.3663 209 14M218 18C223.234 15.1216 226.411 14.9637 232 17C227.825 13.0878 221.236 12.8717 218 18z"/>
<path style="fill:#ba9889; stroke:none;" d="M14 15L13 19L17 17L14 15z"/>
<path style="fill:#1d9850; stroke:none;" d="M23 17L26 16L23 17M68 15L65 40L71 40L71 36L75 40L80 40L77 15L68 15M83 15L83 40L88 40L88 26L89 26L91 40L95 40L96 26L97 26L98 40L103 40C103 33.376 104.569 24.5065 102.682 18.1481C99.6192 7.8297 93.7343 21.9526 93 25L92 25L91 15L83 15M105 19C111.412 22.5356 109 33.5782 109 40C120.459 40.8797 110.697 23.5783 119 19L119 15C114.01 15 106.882 13.3303 105 19M125.133 15.7431C116.809 19.3522 119.196 45.574 131.891 39.9869C140.123 36.3642 138.208 10.0744 125.133 15.7431M139 40L149 40L149 36C142.588 32.4644 145 21.4218 145 15C135.334 15.7531 139 32.7182 139 40M161.147 16.0278C152.827 20.9101 156.392 47.3094 168.772 39.8202C175.823 35.5546 173.976 8.49978 161.147 16.0278z"/>
<path style="fill:#6aad8c; stroke:none;" d="M169 15L170 16L169 15z"/>
<path style="fill:#1d9850; stroke:none;" d="M174 40L180 40L184 36L184 40L190 40C189.494 33.5917 189.556 22.9856 186.436 17.3179C184.959 14.6348 179.986 14.1846 178.024 16.6034C173.925 21.6559 175.488 33.7528 174 40z"/>
<path style="fill:#6aad8c; stroke:none;" d="M193 15L192 17L193 15z"/>
<path style="fill:#1d9850; stroke:none;" d="M200 37L198 37L197 32L192 32C192.372 38.7718 201.705 45.9122 205.396 36.8912C208.834 28.4869 194.768 23.9896 200 18L200 22L206 22C204.852 14.9478 193.318 11.1707 192.164 20.0185C191.143 27.8448 200.631 29.5346 200 37M209 15L209 40L215 40L215 15L209 15M227 37L224 37L224 32L218 32C219.225 39.6913 230.912 45.5412 232.616 34.9823C233.825 27.49 225.071 24.8844 224 18L227 22L232 22C231.427 14.5827 219.841 11.6693 218.412 20.0193C217.19 27.1616 226.463 30.0296 227 37z"/>
<path style="fill:#f3f6f3; stroke:none;" d="M16 17L17 18L16 17z"/>
<path style="fill:#ba9889; stroke:none;" d="M27 17L28 18L27 17z"/>
<path style="fill:#6aad8c; stroke:none;" d="M171 17L172 18L171 17M176 17L176 23L177 23L176 17M187 17L187 22L188 22L187 17z"/>
<path style="fill:#ba9889; stroke:none;" d="M104.333 18.6667L104.667 19.3333L104.333 18.6667z"/>
<path style="fill:#6aad8c; stroke:none;" d="M128 18C126.484 23.1297 124.994 33.7546 130 37L128 18M164 18C162.484 23.1297 160.994 33.7546 166 37L166 36C162.438 33.8629 163.052 19.2629 166 20L166 19L164 18z"/>
<path style="fill:#ba9889; stroke:none;" d="M172 18L173 19L172 18z"/>
<path style="fill:#6aad8c; stroke:none;" d="M191 18L191 24L192 24L191 18M198 18L198 24L199 24C198.461 20.768 197.102 19.2754 200 20L200 19L198 18M224 18L224 20L226 18L224 18M232 18L232 22L233 22L232 18z"/>
<path style="fill:#ba9889; stroke:none;" d="M12 19L13 20L12 19z"/>
<path style="fill:#1d9850; stroke:none;" d="M14 19L13 21L14 19z"/>
<path style="fill:#6aad8c; stroke:none;" d="M93 19L92 25L93 25L93 19M105 19L105 20L108 20L105 19z"/>
<path style="fill:#f3f6f3; stroke:none;" d="M128 19L128 36L129 36L128 19M164 19L164 36L166 36L164 19z"/>
<path style="fill:#6aad8c; stroke:none;" d="M172 19L172 37L173 37L172 19z"/>
<path style="fill:#f3f6f3; stroke:none;" d="M198 19L199 23L200 23L198 19z"/>
<path style="fill:#6aad8c; stroke:none;" d="M226 19L226 22L227 22L226 19z"/>
<path style="fill:#ba9889; stroke:none;" d="M11 20L9 26L11 20z"/>
<path style="fill:#6aad8c; stroke:none;" d="M66 20L66 26L67 26L66 20M108 20L108 23L109 23L108 20z"/>
<path style="fill:#ba9889; stroke:none;" d="M136 20L137 21L136 20z"/>
<path style="fill:#1d9850; stroke:none;" d="M18 21L19 22L18 21M24.6667 21.3333L25.3333 21.6667L24.6667 21.3333z"/>
<path style="fill:#6aad8c; stroke:none;" d="M78 21L78 25L79 25L78 21M136 21L136 35L137 35L136 21z"/>
<path style="fill:#ba9889; stroke:none;" d="M224 21L225 22L224 21z"/>
<path style="fill:#1d9850; stroke:none;" d="M14.3333 22.6667L14.6667 23.3333L14.3333 22.6667M16 22L17 23L16 22z"/>
<path style="fill:#6aad8c; stroke:none;" d="M72 22L71 32L74 32L72 22M182 22L181 28L182 28L182 22M200 22L200 23L206 23L200 22M224 22L225 23L224 22M227 22L227 23L232 23L227 22z"/>
<path style="fill:#1d9850; stroke:none;" d="M18 23L17 29L18 29L18 23z"/>
<path style="fill:#ba9889; stroke:none;" d="M199 23L200 24L199 23z"/>
<path style="fill:#6aad8c; stroke:none;" d="M218 23L218 26L219 26L218 23M225 23L226 24L225 23z"/>
<path style="fill:#f3f6f3; stroke:none;" d="M11 24L11 28L12 28L11 24z"/>
<path style="fill:#1d9850; stroke:none;" d="M21.6667 24.3333L22.3333 24.6667L21.6667 24.3333z"/>
<path style="fill:#ba9889; stroke:none;" d="M25 24L26 25L25 24z"/>
<path style="fill:#6aad8c; stroke:none;" d="M108 24L108 40L109 40L108 24M175 24L175 30L176 30L175 24M188 24L188 29L189 29L188 24M200 24L201 25L200 24M226.667 24.3333L227.333 24.6667L226.667 24.3333z"/>
<path style="fill:#ba9889; stroke:none;" d="M20 25L19 27L20 25z"/>
<path style="fill:#6aad8c; stroke:none;" d="M192.333 25.6667L192.667 26.3333L192.333 25.6667M201.667 25.3333L202.333 25.6667L201.667 25.3333M228 25L229 26L228 25z"/>
<path style="fill:#f3f6f3; stroke:none;" d="M15 26L16 27L15 26M20 26L19 41L20 41L20 26z"/>
<path style="fill:#6aad8c; stroke:none;" d="M88 26L88 35L90 35L88 26M96 26L97 41L103 41L103 40L98 40L96 26M203 26L204 27L203 26M219 26L220 27L219 26M229 26L230 27L229 26z"/>
<path style="fill:#ba9889; stroke:none;" d="M6 27L7 28L6 27z"/>
<path style="fill:#1d9850; stroke:none;" d="M9 27L10 28L9 27M14 27L15 28L14 27z"/>
<path style="fill:#f3f6f3; stroke:none;" d="M72 27L72 31L73 31L72 27M182 27L181 31L182 27z"/>
<path style="fill:#ba9889; stroke:none;" d="M193 27L194 28L193 27z"/>
<path style="fill:#6aad8c; stroke:none;" d="M194 27L195 28L194 27M204 27L205 28L204 27M220 27L221 28L220 27M230.667 27.3333L231.333 27.6667L230.667 27.3333z"/>
<path style="fill:#ba9889; stroke:none;" d="M11 28L12 29L11 28z"/>
<path style="fill:#1d9850; stroke:none;" d="M13 28L14 29L13 28z"/>
<path style="fill:#6aad8c; stroke:none;" d="M65 28L65 34L66 34L65 28M79 28L79 32L80 32L79 28M195 28L196 29L195 28M205.333 28.6667L205.667 29.3333L205.333 28.6667M221.667 28.3333L222.333 28.6667L221.667 28.3333M183.333 29.6667L183.667 30.3333L183.333 29.6667M196 29L197 30L196 29M223 29L224 30L223 29M232.333 29.6667L232.667 30.3333L232.333 29.6667z"/>
<path style="fill:#1d9850; stroke:none;" d="M7 31L7 32L12 36L15 35C13.074 31.3623 11.0389 30.698 7 31z"/>
<path style="fill:#6aad8c; stroke:none;" d="M192 31L192 32L197 32L198 37L200 37C201.411 30.6715 197.127 30.6557 192 31M206 30L206 38L207 38L206 30M218 31L218 32L226 32L226 36L225 36L225 34L224 34L227 37C226.782 30.4364 223.749 30.805 218 31z"/>
<path style="fill:#1d9850; stroke:none;" d="M16 31L17 32L16 31z"/>
<path style="fill:#f3f6f3; stroke:none;" d="M22 31L21 39L22 39L22 31z"/>
<path style="fill:#6aad8c; stroke:none;" d="M24 31L23 33L24 31z"/>
<path style="fill:#f3f6f3; stroke:none;" d="M26.3333 31.6667L26.6667 32.3333L26.3333 31.6667z"/>
<path style="fill:#6aad8c; stroke:none;" d="M28.6667 31.3333L29.3333 31.6667L28.6667 31.3333z"/>
<path style="fill:#f3f6f3; stroke:none;" d="M31 31L32 32L31 31z"/>
<path style="fill:#6aad8c; stroke:none;" d="M31 32L31 33L37 34L37 31L31 32z"/>
<path style="fill:#434278; stroke:none;" d="M37 31L37 41L38 41L39 31L37 31z"/>
<path style="fill:#6aad8c; stroke:none;" d="M39 31L38 40L39 40C39 36.2915 38.1067 33.2767 41 34L39 31z"/>
<path style="fill:#f3f6f3; stroke:none;" d="M40 31L41 32L40 31z"/>
<path style="fill:#434278; stroke:none;" d="M42 31L41 41C45.9227 39.2567 45.0188 34.3378 42 31z"/>
<path style="fill:#6aad8c; stroke:none;" d="M43 31L44 32L43 31M46 31L48 40L49 40L46 31z"/>
<path style="fill:#f3f6f3; stroke:none;" d="M48 31L48 39L50 39L48 31z"/>
<path style="fill:#6aad8c; stroke:none;" d="M181.667 31.3333L182.333 31.6667L181.667 31.3333M189 31L189 36L190 36L189 31z"/>
<path style="fill:#f3f6f3; stroke:none;" d="M198 31L198 36L200 36L198 31M224 31L225 32L224 31z"/>
<path style="fill:#ba9889; stroke:none;" d="M4 32L5 33L4 32z"/>
<path style="fill:#434278; stroke:none;" d="M24 32L23 41L27 40L26 32L24 32M28 32L28 41L29 41L29 35L31 35L31 41L32 41L32 35L33 35L33 41L35 32L28 32z"/>
<path style="fill:#6aad8c; stroke:none;" d="M44.3333 32.6667L44.6667 33.3333L44.3333 32.6667z"/>
<path style="fill:#434278; stroke:none;" d="M46 32C46 35.644 44.7831 40.0964 49 41L46 32z"/>
<path style="fill:#6aad8c; stroke:none;" d="M174 32L174 39L175 39L174 32M191 32L191 36L192 36L191 32z"/>
<path style="fill:#f3f6f3; stroke:none;" d="M225 32L225 36L226 36L225 32z"/>
<path style="fill:#ba9889; stroke:none;" d="M35 33L36 34L35 33M39 33L40 34L39 33z"/>
<path style="fill:#6aad8c; stroke:none;" d="M42 33L42 40L43 40L42 33M95 33L95 38L96 38L95 33z"/>
<path style="fill:#1d9850; stroke:none;" d="M16 34L16 38L17 38L16 34z"/>
<path style="fill:#ba9889; stroke:none;" d="M22 34L23 35L22 34z"/>
<path style="fill:#6aad8c; stroke:none;" d="M24 34L24 38L25 38L24 34M26 34L26 41C28.5128 38.7942 27.8971 36.5071 26 34z"/>
<path style="fill:#f3f6f3; stroke:none;" d="M35 34L35 42L36 42L35 34M39 34L41 42L39 34z"/>
<path style="fill:#1d9850; stroke:none;" d="M8 35L9 36L8 35z"/>
<path style="fill:#f3f6f3; stroke:none;" d="M10 35L9 46L14 45L10 35z"/>
<path style="fill:#6aad8c; stroke:none;" d="M22 35L22 40L23 40L22 35M29 35L29 41L31 41L31 35L29 35M32 35L32 40L33 40L32 35M40 35L40 41L41 41L40 35M44.3333 35.6667L44.6667 36.3333L44.3333 35.6667M64 35L64 41L71 41L71 40L65 40L64 35M80 35L80 40L75 37L74 37L74 41L81 41L80 35M157 35L157 38L158 38L157 35M218 35L218 38L219 38L218 35z"/>
<path style="fill:#f3f6f3; stroke:none;" d="M14 36L19 46L14 36z"/>
<path style="fill:#6aad8c; stroke:none;" d="M71 36L71 40L72 40L71 36M73 36L74 37L73 36M90 36L90 40L91 40L90 36M121.333 36.6667L121.667 37.3333L121.333 36.6667M181 36L181 37L183 40L184 40L184 36L181 36M232 36L232 39L233 39L232 36z"/>
<path style="fill:#ba9889; stroke:none;" d="M15 37L16 38L15 37z"/>
<path style="fill:#6aad8c; stroke:none;" d="M135.333 37.6667L135.667 38.3333L135.333 37.6667M171.333 37.6667L171.667 38.3333L171.333 37.6667M180 37L174 40L174 41L181 41L180 37M192.333 37.6667L192.667 38.3333L192.333 37.6667z"/>
<path style="fill:#ba9889; stroke:none;" d="M18.3333 38.6667L18.6667 39.3333L18.3333 38.6667z"/>
<path style="fill:#6aad8c; stroke:none;" d="M122 38L123 39L122 38M158 38L159 39L158 38M190 38L184 40L184 41C186.535 40.9896 191.356 41.598 190 38M205 38L206 39L205 38M219 38L219 40L221 40L219 38z"/>
<path style="fill:#ba9889; stroke:none;" d="M14 39L15 40L14 39z"/>
<path style="fill:#1d9850; stroke:none;" d="M33 39L34 40L33 39z"/>
<path style="fill:#6aad8c; stroke:none;" d="M44.3333 39.6667L44.6667 40.3333L44.3333 39.6667M123 39L124 40L123 39M133.667 39.3333L134.333 39.6667L133.667 39.3333M159 39L160 40L159 39M170 39L171 40L170 39z"/>
<path style="fill:#ba9889; stroke:none;" d="M173 39L174 40L173 39z"/>
<path style="fill:#6aad8c; stroke:none;" d="M193 39L194 40L193 39M204 39L205 40L204 39M231 39L232 40L231 39M91 40L91 41L95 41L91 40M109 40L109 41L112 41L109 40M124.667 40.3333L125.333 40.6667L124.667 40.3333M131.667 40.3333L132.333 40.6667L131.667 40.3333M160.667 40.3333L161.333 40.6667L160.667 40.3333M168 40L169 41L168 40z"/>
<path style="fill:#ba9889; stroke:none;" d="M194 40L195 41L194 40z"/>
<path style="fill:#6aad8c; stroke:none;" d="M195 40L196 41L195 40M202.667 40.3333L203.333 40.6667L202.667 40.3333M221.667 40.3333L222.333 40.6667L221.667 40.3333M228.667 40.3333L229.333 40.6667L228.667 40.3333M127 41L127 42L130 42L127 41M164.667 41.3333L165.333 41.6667L164.667 41.3333M198.667 41.3333L199.333 41.6667L198.667 41.3333M224 41L224 42L227 42L224 41z"/>
<path style="fill:#ba9889; stroke:none;" d="M15 42L16 43L15 42M17 42L18 43L17 42z"/>
<path style="fill:#f3f6f3; stroke:none;" d="M20 42C22.3323 45.5976 26.0129 44.9969 30 45L30 44L20 42M32 43L32 45L39 45L39 43L32 43z"/>
<path style="fill:#6aad8c; stroke:none;" d="M83 43L83 44L85 45L81 46L82 44L81 44L80 44L81 48L87 46L83 43M91.6667 43.3333L92.3333 43.6667L91.6667 43.3333M106 43L107 44L106 43M113 43L112 49L113 49L118 45L118 44L113 46L113 43M148 54L141 54L144 50L144 49L140 50C140.222 58.439 146.012 53.2084 150 56L151 53L153 56L154 56L153 53L155 55L156 55L158 53L157 56L158 56L160 46L159 46L159 53L158 53L157 51L156 54L155 54C154.452 51.9315 154.544 44.3871 157 49L158 49L159 44C152.169 42.8722 152.908 47.6474 153 53L152 53L152 48L151 48L150 54L149 54L146 45L150 46L149 43C143.16 45.348 146.034 49.6077 148 54M181 43L181 44L183 45L179 47L180 44L179 44L177 52L178 52L178 47L179 47L178 55L179 56L183 56L184 56C183.487 53.5249 183.396 53.4254 181 54C180.246 50.3587 180.113 48.0515 184 47L181 43M186 43C185.197 46.4345 185.698 47.6721 189 49L187 50L187 51L190 50L190 49L187 46C189.475 45.487 189.575 45.3962 189 43L188 43L186 46L186 43M191 48L192 48L192 45L193 45L195 56L196 56L194 46L197 45C193.664 43.0439 192.05 44.5645 191 48z"/>
<path style="fill:#ba9889; stroke:none;" d="M16 44L17 45L16 44z"/>
<path style="fill:#1d9850; stroke:none;" d="M19 44L20 45L19 44M81 45L81 46L85 45L81 45z"/>
<path style="fill:#6aad8c; stroke:none;" d="M89 44L88 54L89 54L89 46L93 46L95 54L90 53L89 55L89 56L95 56L95 44L94 44L95 47L89 44z"/>
<path style="fill:#1d9850; stroke:none;" d="M90 46L95 47C93.4858 44.64 92.0465 43.7393 90 46z"/>
<path style="fill:#6aad8c; stroke:none;" d="M97 44L97 55L98 55L98 45L99 45L99 54L100 54L100 44L97 44M103 44L101 55L104 56L103 44z"/>
<path style="fill:#1d9850; stroke:none;" d="M104 44L104 56C111.45 54.4099 111.826 45.248 104 44z"/>
<path style="fill:#6aad8c; stroke:none;" d="M108 44L109 45L108 44z"/>
<path style="fill:#1d9850; stroke:none;" d="M113 46L116 45L113 46z"/>
<path style="fill:#6aad8c; stroke:none;" d="M119 44L120 45L119 44z"/>
<path style="fill:#1d9850; stroke:none;" d="M120 44L119 55L120 55L120 48L124 56L125 56L126 48L125 48L125 52L124 52L120 44z"/>
<path style="fill:#6aad8c; stroke:none;" d="M121.333 44.6667L121.667 45.3333L121.333 44.6667M124 44L124 52L125 52L126 44L124 44M131 44L131 56L133 52L136 52L135 56L136 56L137 45L136 45L134 49L136 48L136 49L132 51L135 46L135 45L131 44z"/>
<path style="fill:#1d9850; stroke:none;" d="M132 46L135 47C136.093 44.1135 133.499 43.9243 132 46M139 44C139 48.69 137.763 54.2618 143 56L143 55C140.925 52.8499 140.44 51.7951 143 50L143 49L140 49L143 45L139 44z"/>
<path style="fill:#6aad8c; stroke:none;" d="M143 44L141 45L141 46L143 44z"/>
<path style="fill:#1d9850; stroke:none;" d="M147.667 44.3333L148.333 44.6667L147.667 44.3333M153 45L153 46L157 45L153 45z"/>
<path style="fill:#6aad8c; stroke:none;" d="M161 44L162 56L163 56L163 44L161 44M166 44C166 47.2421 167.004 52.4134 163 53L163 54L167 54L166 56L167 56L167 45L168 45L168 51L169 51L169 44L166 44M170 44L172 56L170 44z"/>
<path style="fill:#1d9850; stroke:none;" d="M171 44L171 54L172 54L172 51L175 55C176.16 50.3926 175.99 45.5283 171 44z"/>
<path style="fill:#6aad8c; stroke:none;" d="M174 44L176 46L176 44L174 44z"/>
<path style="fill:#1d9850; stroke:none;" d="M179 47L183 45L179 47M186 46L189 45L186 46M193.667 44.3333L194.333 44.6667L193.667 44.3333z"/>
<path style="fill:#6aad8c; stroke:none;" d="M201 44L201 56L202 56L203 44L201 44M205 44L205 46L207 46L205 44z"/>
<path style="fill:#1d9850; stroke:none;" d="M206 44L208 55L209 55L211 44L206 44z"/>
<path style="fill:#6aad8c; stroke:none;" d="M210 45L210 46L214 45L210 45z"/>
<path style="fill:#1d9850; stroke:none;" d="M213 49L214 49L215 45C218.795 48.6636 218.795 51.3364 215 55L214 50C211.809 55.7671 218.524 56.5679 219.638 50.9846C220.788 45.2191 214.129 42.254 213 49z"/>
<path style="fill:#6aad8c; stroke:none;" d="M217.667 44.3333L218.333 44.6667L217.667 44.3333M32 45L32 46L37 46L32 45M39 45L40 46L39 45z"/>
<path style="fill:#1d9850; stroke:none;" d="M98 45L98 56L102 56L102 55L98 45z"/>
<path style="fill:#6aad8c; stroke:none;" d="M105 45L105 50L106 50L106 46L109 48L105 45M109 45L110 46L109 45z"/>
<path style="fill:#1d9850; stroke:none;" d="M146 45L149 54L150 54L146 45M157 45L158 53L159 53L157 45M162 45L162 50L163 50L162 45M167 45L167 54L168 54L167 45z"/>
<path style="fill:#6aad8c; stroke:none;" d="M172 45L172 46L172 50C174.075 47.8499 174.56 46.7951 172 45z"/>
<path style="fill:#1d9850; stroke:none;" d="M192 45L192 55L192 56C197.936 54.028 194.87 48.7176 192 45z"/>
<path style="fill:#ba9889; stroke:none;" d="M196 45L197 46L196 45z"/>
<path style="fill:#1d9850; stroke:none;" d="M202 45C202 48.8838 200.419 55.0184 205 56L202 45z"/>
<path style="fill:#6aad8c; stroke:none;" d="M215 45L215 55L218 54L218 53L215 53L215 45z"/>
<path style="fill:#434278; stroke:none;" d="M12 46C10.1056 55.8075 21.4643 65.9758 31 65.733C41.4753 65.4663 49.454 56.9125 51 47L22 46L24 54L16 46L12 46z"/>
<path style="fill:#1d9850; stroke:none;" d="M16 46L16 48L18 48L16 46M19 46C18.535 50.4033 19.9991 52.2722 24 54L22 47L19 46z"/>
<path style="fill:#434278; stroke:none;" d="M20 46L21 47L20 46z"/>
<path style="fill:#6aad8c; stroke:none;" d="M42.6667 46.3333L43.3333 46.6667L42.6667 46.3333M50 46L51 47L50 46z"/>
<path style="fill:#1d9850; stroke:none;" d="M80 46L80 49L81 49L80 46M89.3333 46.6667L89.6667 47.3333L89.3333 46.6667z"/>
<path style="fill:#f3f6f3; stroke:none;" d="M91 46L91 54L93 54L93 46L91 46M106 46L106 54C108.742 51.0248 108.86 48.8942 106 46z"/>
<path style="fill:#6aad8c; stroke:none;" d="M110 46L110 53L111 53L110 46z"/>
<path style="fill:#ba9889; stroke:none;" d="M122 46L123 47L122 46z"/>
<path style="fill:#1d9850; stroke:none;" d="M125 46L126 47L125 46z"/>
<path style="fill:#f3f6f3; stroke:none;" d="M133 46L133 49L135 46L133 46z"/>
<path style="fill:#6aad8c; stroke:none;" d="M140 46L142 49L140 46z"/>
<path style="fill:#1d9850; stroke:none;" d="M152 46L152 53L153 53L152 46z"/>
<path style="fill:#f3f6f3; stroke:none;" d="M155 46L155 54L156 54L157 46L155 46M172 46L172 49L174 46L172 46z"/>
<path style="fill:#ba9889; stroke:none;" d="M207 46L208 47L207 46z"/>
<path style="fill:#6aad8c; stroke:none;" d="M209 46L208 56C210.789 53.5629 210.361 49.2443 209 46z"/>
<path style="fill:#f3f6f3; stroke:none;" d="M215 46L215 53L218 53L217 46L215 46z"/>
<path style="fill:#6aad8c; stroke:none;" d="M217 46L218 47L217 46M219 46L220 47L219 46z"/>
<path style="fill:#f3f6f3; stroke:none;" d="M9 47L10 48L9 47M52 47L53 48L52 47z"/>
<path style="fill:#6aad8c; stroke:none;" d="M79 47L79 53L80 53L79 47z"/>
<path style="fill:#1d9850; stroke:none;" d="M113 47L112 50L113 51L116 50L113 47z"/>
<path style="fill:#6aad8c; stroke:none;" d="M122 47L123 48L122 47z"/>
<path style="fill:#1d9850; stroke:none;" d="M136 47L137 48L136 47z"/>
<path style="fill:#ba9889; stroke:none;" d="M151 47L152 48L151 47z"/>
<path style="fill:#1d9850; stroke:none;" d="M178 47L178 53L179 53L178 47M88 48L88 51L89 51L88 48M95 48L95 51L96 51L95 48z"/>
<path style="fill:#6aad8c; stroke:none;" d="M114.667 48.3333L115.333 48.6667L114.667 48.3333M120 48L119 56L120 56L122 48L120 48z"/>
<path style="fill:#1d9850; stroke:none;" d="M135 48L132 51L135 48z"/>
<path style="fill:#ba9889; stroke:none;" d="M142 48L143 49L142 48z"/>
<path style="fill:#6aad8c; stroke:none;" d="M147.667 48.3333L148.333 48.6667L147.667 48.3333M175.333 48.6667L175.667 49.3333L175.333 48.6667z"/>
<path style="fill:#1d9850; stroke:none;" d="M185 48L186 52L189 49L185 48z"/>
<path style="fill:#ba9889; stroke:none;" d="M191 48L192 49L191 48z"/>
<path style="fill:#6aad8c; stroke:none;" d="M207 48L208 49L207 48M218 48L218 52L219 52L218 48M83 49L85 52L83 49z"/>
<path style="fill:#1d9850; stroke:none;" d="M84 49L85 54L81 51L80 51C81.9979 57.5742 87.8247 54.1368 84 49z"/>
<path style="fill:#6aad8c; stroke:none;" d="M85 49L85 56C87.4034 53.9003 87.4034 51.0997 85 49M116 49L114 50L114 51L116 49M149 49L150 50L149 49M192 49L193 50L192 49z"/>
<path style="fill:#f3f6f3; stroke:none;" d="M10 50L11 51L10 50z"/>
<path style="fill:#6aad8c; stroke:none;" d="M30 50L29 54L36 53L36 51L30 50z"/>
<path style="fill:#f3f6f3; stroke:none;" d="M51 50L52 51L51 50z"/>
<path style="fill:#6aad8c; stroke:none;" d="M112 50L112 56L113 56L113 53L117 55L117 54L112 50M185 50L185 56L186 56L194 55L194 54L185 50M193 50L194 51L193 50M105 51L106 52L105 51M108.333 51.6667L108.667 52.3333L108.333 51.6667M122.333 51.6667L122.667 52.3333L122.333 51.6667M138 51L139 52L138 51z"/>
<path style="fill:#1d9850; stroke:none;" d="M162 51C162.581 54.4901 163.44 55.5474 167 55L167 54L164 55L162 51z"/>
<path style="fill:#6aad8c; stroke:none;" d="M172.667 51.3333L173.333 51.6667L172.667 51.3333M175.333 51.6667L175.667 52.3333L175.333 51.6667M194 51L195 52L194 51z"/>
<path style="fill:#f3f6f3; stroke:none;" d="M11 52L12 53L11 52z"/>
<path style="fill:#6aad8c; stroke:none;" d="M81 52L82 53L81 52z"/>
<path style="fill:#1d9850; stroke:none;" d="M89 52L91 55L89 52M94.3333 52.6667L94.6667 53.3333L94.3333 52.6667M135.333 52.6667L135.667 53.3333L135.333 52.6667z"/>
<path style="fill:#ba9889; stroke:none;" d="M168 52L169 53L168 52M177 52L178 53L177 52z"/>
<path style="fill:#6aad8c; stroke:none;" d="M39 53L40 54L39 53M43.6667 53.3333L44.3333 53.6667L43.6667 53.3333M82 53L83 54L82 53M84 53L85 54L84 53M105 53L106 54L105 53M107 53L108 54L107 53M109.333 53.6667L109.667 54.3333L109.333 53.6667z"/>
<path style="fill:#1d9850; stroke:none;" d="M113 53L117 56L117 55L113 53M131 53L132 54L131 53M153 53C154.772 55.6816 156.228 55.6816 158 53L156 55L155 55L153 53z"/>
<path style="fill:#6aad8c; stroke:none;" d="M174.333 53.6667L174.667 54.3333L174.333 53.6667z"/>
<path style="fill:#1d9850; stroke:none;" d="M179 53L179 55L181 55L179 53z"/>
<path style="fill:#6aad8c; stroke:none;" d="M194 53L195 54L194 53M203 53L204 54L203 53M219 53L220 54L219 53z"/>
<path style="fill:#ba9889; stroke:none;" d="M221 53L222 54L221 53z"/>
<path style="fill:#6aad8c; stroke:none;" d="M222 53L221 56L222 56L223 56L222 53M80 54L81 55L80 54z"/>
<path style="fill:#1d9850; stroke:none;" d="M93 54L94 55L93 54z"/>
<path style="fill:#6aad8c; stroke:none;" d="M106 54L107 55L106 54M123 54L124 55L123 54M125.333 54.6667L125.667 55.3333L125.333 54.6667z"/>
<path style="fill:#1d9850; stroke:none;" d="M136.333 54.6667L136.667 55.3333L136.333 54.6667z"/>
<path style="fill:#ba9889; stroke:none;" d="M137.333 54.6667L137.667 55.3333L137.333 54.6667z"/>
<path style="fill:#1d9850; stroke:none;" d="M148 54L147 56L149 56L148 54z"/>
<path style="fill:#6aad8c; stroke:none;" d="M176 54L175 56L177 56L176 54z"/>
<path style="fill:#1d9850; stroke:none;" d="M182 54L181 56L183 56L182 54M186 54L190 56L190 55L186 54z"/>
<path style="fill:#6aad8c; stroke:none;" d="M204 54L206 56L206 54L204 54M207 54L208 55L207 54M218 54L219 55L218 54z"/>
<path style="fill:#1d9850; stroke:none;" d="M222 54L223 55L222 54z"/>
<path style="fill:#6aad8c; stroke:none;" d="M81 55L82 56L81 55z"/>
<path style="fill:#1d9850; stroke:none;" d="M91.6667 55.3333L92.3333 55.6667L91.6667 55.3333z"/>
<path style="fill:#6aad8c; stroke:none;" d="M107.667 55.3333L108.333 55.6667L107.667 55.3333z"/>
<path style="fill:#ba9889; stroke:none;" d="M120 55L121 56L120 55z"/>
<path style="fill:#6aad8c; stroke:none;" d="M139 55L140 56L139 55M213 55L214 56L213 55M217 55L218 56L217 55z"/>
<path style="fill:#f3f6f3; stroke:none;" d="M13 56L15 58L13 56M48 56L49 57L48 56M47 57L48 58L47 57M16.3333 59.6667L16.6667 60.3333L16.3333 59.6667M18 61L20 63L18 61z"/>
<path style="fill:#6aad8c; stroke:none;" d="M19 61L20 62L19 61z"/>
<path style="fill:#ba9889; stroke:none;" d="M54 62L43 73C49.8326 75.4239 65.5578 65.5115 54 62M20 75C18.1432 72.0718 8.42147 61.1338 4.78627 64.6613C-1.55776 70.8173 16.9403 74.5498 20 75z"/>
<path style="fill:#f3f6f3; stroke:none;" d="M20 63L21 64L20 63M41 63L42 64L41 63M22 64L23 65L22 64M39 64L40 65L39 64M24.6667 65.3333L25.3333 65.6667L24.6667 65.3333M37 65L38 66L37 65M27 66L27 67L36 67L27 66z"/>
</svg>
